<?xml version="1.0" encoding="UTF-8"?>
<svg xmlns="http://www.w3.org/2000/svg" xmlns:xlink="http://www.w3.org/1999/xlink" viewBox="0 0 25 25" width="25px" height="25px">
<g id="surface71582299">
<path style=" stroke:none;fill-rule:nonzero;fill:rgb(7.843138%,8.235294%,18.82353%);fill-opacity:1;" d="M 12.5 0.625 C 5.941406 0.625 0.625 5.941406 0.625 12.5 C 0.625 19.058594 5.941406 24.375 12.5 24.375 C 19.058594 24.375 24.375 19.058594 24.375 12.5 C 24.375 5.941406 19.058594 0.625 12.5 0.625 Z M 12.5 0.625 "/>
<path style=" stroke:none;fill-rule:nonzero;fill:rgb(7.843138%,8.235294%,18.82353%);fill-opacity:1;" d="M 12.5 1.25 C 18.703125 1.25 23.75 6.296875 23.75 12.5 C 23.75 18.703125 18.703125 23.75 12.5 23.75 C 6.296875 23.75 1.25 18.703125 1.25 12.5 C 1.25 6.296875 6.296875 1.25 12.5 1.25 M 12.5 0.625 C 5.941406 0.625 0.625 5.941406 0.625 12.5 C 0.625 19.058594 5.941406 24.375 12.5 24.375 C 19.058594 24.375 24.375 19.058594 24.375 12.5 C 24.375 5.941406 19.058594 0.625 12.5 0.625 Z M 12.5 0.625 "/>
<path style=" stroke:none;fill-rule:nonzero;fill:rgb(100%,100%,100%);fill-opacity:1;" d="M 19.335938 9.089844 C 19.363281 8.992188 19.378906 8.90625 19.375 8.828125 C 19.363281 8.601562 19.210938 8.4375 18.84375 8.4375 L 17.207031 8.4375 C 16.792969 8.4375 16.601562 8.6875 16.492188 8.9375 C 16.492188 8.9375 15.472656 11.039062 14.296875 12.421875 C 13.914062 12.824219 13.722656 12.8125 13.515625 12.8125 C 13.40625 12.8125 13.125 12.679688 13.125 12.3125 L 13.125 9.070312 C 13.125 8.636719 13.015625 8.4375 12.667969 8.4375 L 9.761719 8.4375 C 9.507812 8.4375 9.375 8.636719 9.375 8.839844 C 9.375 9.253906 9.9375 9.355469 10 10.523438 L 10 12.789062 C 10 13.335938 9.90625 13.4375 9.699219 13.4375 C 9.140625 13.4375 8.046875 11.5625 7.3125 9.105469 C 7.15625 8.621094 6.996094 8.4375 6.582031 8.4375 L 4.929688 8.4375 C 4.453125 8.4375 4.375 8.671875 4.375 8.921875 C 4.375 9.371094 4.75 11.808594 6.796875 14.609375 C 8.28125 16.640625 10.238281 17.8125 11.96875 17.8125 C 13.015625 17.8125 13.125 17.546875 13.125 17.128906 L 13.125 15.269531 C 13.125 14.769531 13.238281 14.6875 13.574219 14.6875 C 13.8125 14.6875 14.296875 14.84375 15.234375 15.9375 C 16.316406 17.199219 16.511719 17.8125 17.132812 17.8125 L 18.769531 17.8125 C 19.148438 17.8125 19.367188 17.652344 19.375 17.34375 C 19.375 17.265625 19.367188 17.175781 19.339844 17.078125 C 19.21875 16.71875 18.664062 15.839844 17.96875 15 C 17.585938 14.535156 17.203125 14.074219 17.03125 13.824219 C 16.914062 13.664062 16.871094 13.546875 16.875 13.4375 C 16.878906 13.320312 16.941406 13.210938 17.03125 13.058594 C 17.015625 13.058594 19.128906 10.089844 19.335938 9.089844 Z M 19.335938 9.089844 "/>
</g>
</svg>
