<?xml version="1.0" encoding="UTF-8"?>
<svg xmlns="http://www.w3.org/2000/svg" xmlns:xlink="http://www.w3.org/1999/xlink" viewBox="0 0 25 25" width="25px" height="25px">
<g id="surface71813001">
<path style=" stroke:none;fill-rule:nonzero;fill:rgb(12.941177%,13.725491%,28.627452%);fill-opacity:1;" d="M 12.5 2.082031 C 6.769531 2.082031 2.082031 6.769531 2.082031 12.5 C 2.082031 18.230469 6.769531 22.917969 12.5 22.917969 C 18.230469 22.917969 22.917969 18.230469 22.917969 12.5 C 22.917969 6.769531 18.230469 2.082031 12.5 2.082031 Z M 12.5 2.082031 "/>
<path style=" stroke:none;fill-rule:nonzero;fill:rgb(100%,100%,100%);fill-opacity:1;" d="M 17.707031 7.8125 L 15.78125 17.761719 C 15.78125 17.761719 15.675781 18.230469 15.15625 18.230469 C 14.84375 18.230469 14.6875 18.074219 14.6875 18.074219 L 10.417969 14.582031 L 8.332031 13.542969 L 5.675781 12.8125 C 5.675781 12.8125 5.207031 12.65625 5.207031 12.292969 C 5.207031 11.980469 5.675781 11.824219 5.675781 11.824219 L 16.769531 7.394531 C 16.769531 7.394531 17.136719 7.292969 17.34375 7.292969 C 17.5 7.292969 17.65625 7.34375 17.65625 7.550781 C 17.707031 7.707031 17.707031 7.8125 17.707031 7.8125 Z M 17.707031 7.8125 "/>
<path style=" stroke:none;fill-rule:nonzero;fill:rgb(69.01961%,74.509805%,77.254903%);fill-opacity:1;" d="M 11.980469 15.886719 L 10.207031 17.65625 C 10.207031 17.65625 10.15625 17.707031 10.050781 17.707031 C 10 17.707031 10 17.707031 9.949219 17.707031 L 10.46875 14.582031 Z M 11.980469 15.886719 "/>
<path style=" stroke:none;fill-rule:nonzero;fill:rgb(81.176472%,84.705883%,86.274511%);fill-opacity:1;" d="M 15.574219 9.480469 C 15.46875 9.375 15.3125 9.324219 15.207031 9.425781 L 8.332031 13.542969 C 8.332031 13.542969 9.425781 16.613281 9.582031 17.136719 C 9.738281 17.65625 9.894531 17.65625 9.894531 17.65625 L 10.417969 14.53125 L 15.519531 9.792969 C 15.625 9.738281 15.675781 9.582031 15.574219 9.480469 Z M 15.574219 9.480469 "/>
</g>
</svg>
