<?xml version="1.0" encoding="UTF-8"?>
<svg xmlns="http://www.w3.org/2000/svg" xmlns:xlink="http://www.w3.org/1999/xlink" viewBox="0 0 25 25" width="25px" height="25px">
<g id="surface73714161">
<path style=" stroke:none;fill-rule:nonzero;fill:rgb(7.843138%,8.235294%,18.82353%);fill-opacity:1;" d="M 12.5 2.082031 C 6.746094 2.082031 2.082031 6.746094 2.082031 12.5 C 2.082031 17.128906 5.105469 21.046875 9.28125 22.402344 L 15.71875 22.402344 C 19.894531 21.046875 22.917969 17.128906 22.917969 12.5 C 22.917969 6.746094 18.253906 2.082031 12.5 2.082031 Z M 12.5 2.082031 "/>
<path style=" stroke:none;fill-rule:nonzero;fill:rgb(100%,100%,100%);fill-opacity:1;" d="M 19.269531 12.238281 C 19.269531 10.730469 18.816406 9.652344 18.042969 8.894531 C 18.535156 8.019531 17.886719 6.25 17.886719 6.25 C 16.582031 6.511719 15.609375 7.03125 14.964844 7.488281 C 14.199219 7.351562 13.371094 7.292969 12.5 7.292969 C 11.609375 7.292969 10.761719 7.351562 9.980469 7.496094 C 9.335938 7.039062 8.359375 6.511719 7.050781 6.25 C 7.050781 6.25 6.378906 8.070312 6.917969 8.929688 C 6.167969 9.6875 5.730469 10.753906 5.730469 12.238281 C 5.730469 15.429688 7.75 16.707031 10.527344 17.070312 C 10.136719 17.523438 9.894531 18.105469 9.894531 18.75 L 9.894531 18.910156 C 9.8125 18.933594 9.722656 18.953125 9.628906 18.964844 C 9.050781 19.039062 8.445312 18.964844 8.152344 18.792969 C 7.859375 18.617188 7.511719 18.226562 7.253906 17.847656 C 7.03125 17.527344 6.59375 16.789062 5.472656 16.816406 C 5.277344 16.8125 5.1875 16.996094 5.210938 17.109375 C 5.234375 17.210938 5.324219 17.371094 5.679688 17.5 C 6.035156 17.632812 6.234375 17.945312 6.429688 18.261719 C 6.644531 18.609375 6.644531 19.546875 7.761719 20.039062 C 8.558594 20.390625 9.320312 20.347656 9.894531 20.210938 L 9.898438 21.875 C 9.898438 22.207031 9.59375 22.460938 9.277344 22.402344 C 10.289062 22.742188 11.371094 22.917969 12.5 22.917969 C 13.628906 22.917969 14.710938 22.742188 15.722656 22.402344 C 15.410156 22.460938 15.105469 22.207031 15.105469 21.875 L 15.105469 18.75 C 15.105469 18.105469 14.863281 17.523438 14.472656 17.070312 C 17.25 16.707031 19.269531 15.429688 19.269531 12.238281 Z M 19.269531 12.238281 "/>
<path style=" stroke:none;fill-rule:nonzero;fill:rgb(100%,100%,100%);fill-opacity:1;" d="M 7.8125 9.375 L 9.8125 8.707031 C 10.335938 8.535156 10.453125 7.832031 10 7.511719 L 9.980469 7.496094 C 8.734375 7.726562 7.667969 8.167969 6.914062 8.929688 C 7.082031 9.195312 7.359375 9.375 7.8125 9.375 Z M 7.8125 9.375 "/>
<path style=" stroke:none;fill-rule:nonzero;fill:rgb(100%,100%,100%);fill-opacity:1;" d="M 14.945312 7.5 C 14.488281 7.824219 14.601562 8.535156 15.136719 8.714844 L 17.121094 9.375 C 17.597656 9.375 17.882812 9.183594 18.042969 8.894531 C 17.285156 8.144531 16.214844 7.710938 14.964844 7.488281 C 14.957031 7.492188 14.949219 7.496094 14.945312 7.5 Z M 14.945312 7.5 "/>
<path style=" stroke:none;fill-rule:nonzero;fill:rgb(100%,100%,100%);fill-opacity:1;" d="M 12.5 16.144531 C 11.707031 16.144531 11.003906 16.507812 10.527344 17.070312 C 11.152344 17.152344 11.8125 17.1875 12.5 17.1875 C 13.1875 17.1875 13.847656 17.152344 14.472656 17.070312 C 13.996094 16.507812 13.292969 16.144531 12.5 16.144531 Z M 12.5 16.144531 "/>
</g>
</svg>
